<!--?xml version="1.0" encoding="utf-8"?-->
<!-- Generator: Adobe Illustrator 22.1.0, SVG Export Plug-In . SVG Version: 6.00 Build 0)  -->
<svg version="1.1" id="_x36_" xmlns="http://www.w3.org/2000/svg" xmlns:xlink="http://www.w3.org/1999/xlink" x="0px" y="0px" viewBox="0 0 800 503.7" style="enable-background:new 0 0 800 503.7;" xml:space="preserve" preserveAspectRatio="none">
<style type="text/css">
	.st0{fill:#DF0000;}
</style>
<g>
	<polygon class="st0" points="31.9,18.1 31.9,18.1 31.9,18.1 	"></polygon>
	<polygon class="st0" points="16.2,30.1 16.2,30.1 16.2,30.1 	"></polygon>
	<polygon class="st0" points="16.2,30.1 16.2,30.1 16.2,30.1 	"></polygon>
	<path class="st0" d="M30.1,33.1c-0.2-0.6-0.2-1.3-0.1-2c0.2-0.6,0.5-1.2,0.9-1.7c0.5-0.5,1-0.8,1.7-0.9c0.6-0.2,1.3-0.1,2,0.1
		l0.6,0.2l4.2-13.1l-0.6-0.2c-2.3-0.7-4.8-1-7.2-0.7l0,0c-2.4,0.3-4.8,1-6.9,2.3l-0.5,0.3l5.3,9L30,26c1.1-0.7,2.5-1,3.9-0.9l0.6,0
		l0.4-7.1l-0.6,0c-0.8,0-1.5,0-2.3,0.1l0,0l0,0l0,0c0,0,0,0,0,0c-1,0.1-2,0.3-3,0.7l-0.6,0.2l1.4,4.1l0.6-0.2
		c0.7-0.2,1.4-0.4,2.1-0.5l-0.1-1.2c-0.6,0.1-1.2,0.2-1.8,0.3l-0.6-1.9c0.7-0.2,1.4-0.4,2.2-0.4h0c0.5-0.1,1-0.1,1.5-0.1l-0.2,4.8
		c-1.2,0-2.4,0.3-3.4,0.8l-4.1-7c1.8-1,3.9-1.6,5.9-1.8l0,0c2.1-0.2,4.2,0,6.1,0.5l-3.5,10.9c-0.7-0.1-1.4-0.1-2,0
		c-0.8,0.2-1.6,0.6-2.2,1.3l0,0c-0.6,0.6-1.1,1.4-1.3,2.2c-0.2,0.7-0.2,1.4,0,2l-10.9,3.5c-0.6-2-0.7-4.1-0.5-6.2l0,0
		c0.2-2.1,0.9-4.1,1.8-5.9l7,4.1c-0.5,1.1-0.8,2.2-0.8,3.4l-4.8,0.3c0-0.5,0-1,0.1-1.5l0,0c0.1-0.7,0.2-1.5,0.4-2.2l1.9,0.6
		c-0.2,0.6-0.3,1.2-0.3,1.8l1.2,0.1c0.1-0.7,0.2-1.4,0.5-2.1l0.2-0.6l-4.1-1.4l-0.2,0.6c-0.3,1-0.6,2-0.7,3l0,0
		c-0.1,0.8-0.1,1.5-0.1,2.3l0,0.6l7.1-0.4l0-0.6c-0.1-1.4,0.3-2.7,0.9-3.9l0.3-0.5l-9-5.3l-0.3,0.5c-1.2,2.1-2,4.5-2.3,6.9
		c-0.3,2.4,0,4.9,0.7,7.2l0.2,0.6l13.1-4.2L30.1,33.1z"></path>
	
		<rect x="24.7" y="18.6" transform="matrix(0.7071 -0.7071 0.7071 0.7071 -9.4527 24.8994)" class="st0" width="1.2" height="10.5"></rect>
	<path class="st0" d="M32.4,35.4l-0.6-0.2l-4.2,13.1l0.6,0.2c2.3,0.7,4.8,1,7.2,0.7h0l0,0h0c2.4-0.3,4.8-1,6.9-2.3l0.5-0.3l-5.3-9
		L37,38c-1.1,0.7-2.5,1-3.9,0.9l-0.6,0L32.2,46l0.6,0c0.8,0,1.5,0,2.3-0.1c1-0.1,2-0.3,3-0.7l0.6-0.2L37.2,41l-0.6,0.2
		c-0.7,0.2-1.4,0.4-2.1,0.5l0.1,1.2c0.6-0.1,1.2-0.2,1.8-0.3l0.6,1.9c-0.7,0.2-1.4,0.4-2.2,0.4l0,0c-0.5,0.1-1,0.1-1.5,0.1l0.2-4.8
		c1.2,0,2.4-0.3,3.4-0.8l4.1,7c-1.8,1-3.9,1.6-5.9,1.8l0,0c-2.1,0.2-4.2,0-6.2-0.5l3.5-10.9c0.7,0.1,1.4,0.1,2,0
		c0.8-0.2,1.6-0.6,2.2-1.3l0,0c0.6-0.6,1.1-1.4,1.3-2.2c0.2-0.7,0.2-1.4,0-2l10.9-3.5c0.6,2,0.7,4.1,0.5,6.2l0,0
		c-0.2,2.1-0.9,4.1-1.8,5.9l-7-4.1c0.5-1.1,0.8-2.2,0.8-3.4l4.8-0.2c0,0.5,0,1-0.1,1.5v0c-0.1,0.7-0.2,1.5-0.4,2.2L44,35
		c0.2-0.6,0.3-1.2,0.3-1.8l-1.2-0.1c-0.1,0.7-0.2,1.4-0.5,2.1l-0.2,0.6l4.1,1.4l0.2-0.6c0.3-1,0.6-2,0.7-3l0,0
		c0.1-0.8,0.1-1.5,0.1-2.3l0-0.6l-7.1,0.4l0,0.6c0.1,1.4-0.3,2.7-0.9,3.9L39.2,36l9,5.3l0.3-0.5c1.2-2.1,2-4.5,2.3-6.9l0,0l0,0
		c0.3-2.4,0-4.9-0.7-7.2l-0.2-0.6l-13.1,4.2l0.2,0.6c0.2,0.6,0.2,1.3,0.1,2c-0.2,0.6-0.5,1.2-0.9,1.7c-0.5,0.5-1,0.8-1.7,0.9
		C33.7,35.7,33,35.6,32.4,35.4z"></path>
	
		<rect x="41.1" y="34.9" transform="matrix(0.7071 -0.7071 0.7071 0.7071 -16.2176 41.2292)" class="st0" width="1.2" height="10.5"></rect>
	<path class="st0" d="M21.8,42.9L21.8,42.9l0.4,0.4l0,0l0.4,0.4l0,0c0.5,0.4,0.9,0.8,1.4,1.2l-3.3,5.3l1,0.6c1,0.7,2.1,1.2,3.3,1.7
		l-1.5,0l5.1,1.2c2.4,0.5,4.9,0.7,7.4,0.4c2.5-0.3,4.9-1,7.2-2.1c2.3-1.1,4.3-2.6,6.1-4.3c1.2-1.2,2.3-2.6,3.2-4.1l0,0.3l1.1-2.3
		c1.1-2.3,1.8-4.7,2.1-7.2c0.3-2.5,0.1-5-0.4-7.4l-0.2-1l0,0c-0.6-2.1-1.4-4.1-2.6-5.9l-0.3-0.5l-0.3-0.5l-5.3,3.3
		c-0.4-0.5-0.8-1-1.2-1.4l0,0l-0.4-0.4l-0.4-0.4l0,0c-0.5-0.4-0.9-0.8-1.4-1.2l3.3-5.3l-1-0.6c-2.1-1.3-4.5-2.3-6.9-2.8l-2-0.4
		l0.1,0.1c-1.8-0.3-3.7-0.3-5.5-0.1c-2.5,0.3-4.9,1-7.2,2.1l0,0l0,0l0,0l0,0c-2.2,1.1-4.3,2.6-6,4.3c-1.7,1.7-3.2,3.8-4.3,6v0l0,0v0
		l0,0c-1.1,2.3-1.8,4.7-2.1,7.2c-0.2,1.8-0.2,3.7,0.1,5.5l-0.1-0.1l0.4,2c0.5,2.4,1.5,4.8,2.8,6.9l0.3,0.5l0.3,0.5l5.3-3.3
		C21,42,21.4,42.5,21.8,42.9z M23.4,42.1c-0.6-0.6-1.2-1.3-1.7-2l6.3-3.9c0.2,0.3,0.4,0.5,0.6,0.7l0.4-0.4l-0.4,0.4
		c0.2,0.2,0.5,0.4,0.7,0.6l-3.9,6.3C24.7,43.3,24,42.7,23.4,42.1z M43.6,21.9c0.6,0.6,1.2,1.3,1.7,2L39,27.9
		c-0.2-0.3-0.4-0.5-0.6-0.7L38,27.6l0.4-0.4c-0.2-0.2-0.5-0.4-0.7-0.6l3.9-6.3C42.3,20.7,43,21.3,43.6,21.9z M13.5,36.5
		c-0.5-2.2-0.6-4.6-0.4-6.8c0.3-2.3,0.9-4.5,1.9-6.6l0,0c1-2.1,2.4-4,4-5.6c1.6-1.6,3.5-3,5.6-4l0,0c2.1-1,4.3-1.6,6.6-1.9
		c2.3-0.3,4.6-0.1,6.8,0.4c2.1,0.5,4,1.2,5.9,2.3L36,26.9l0.5,0.3c0.4,0.2,0.7,0.5,1,0.8c0.3,0.3,0.6,0.7,0.8,1l0.3,0.5l12.5-7.8
		c1.1,1.8,1.9,3.8,2.3,5.8h0c0.5,2.2,0.6,4.6,0.4,6.8c-0.3,2.3-0.9,4.5-1.9,6.6l0,0c-1,2.1-2.4,4-4,5.6c-1.6,1.6-3.5,3-5.6,4h0
		c-2.1,1-4.3,1.6-6.6,1.9c-2.3,0.3-4.6,0.1-6.8-0.4l0,0c-2-0.5-4-1.2-5.8-2.3L31,37.2l-0.5-0.3c-0.4-0.2-0.7-0.5-1-0.8
		c-0.3-0.3-0.6-0.7-0.8-1l-0.3-0.5l-12.5,7.8C14.8,40.6,14,38.6,13.5,36.5z"></path>
	<polygon class="st0" points="13,62.1 11.8,62.1 11.8,151.1 11.8,151.1 11.8,441.6 13,441.6 13,151.1 13,151.1 	"></polygon>
	<polygon class="st0" points="181.4,11.5 736.5,11.5 736.5,10.4 181.4,10.4 181.4,10.4 63.5,10.4 63.5,11.5 181.4,11.5 	"></polygon>
	<path class="st0" d="M20,54.5c-0.2-0.2-0.4-0.3-0.7-0.3c-0.2,0-0.5,0.1-0.7,0.3c-0.2,0.2-0.3,0.4-0.3,0.7c0,0.2,0.1,0.5,0.3,0.7
		c0.2,0.2,0.4,0.3,0.7,0.3c0.3,0,0.5-0.1,0.7-0.3c0.2-0.2,0.3-0.4,0.3-0.7S20.2,54.7,20,54.5z"></path>
	<path class="st0" d="M26.2,58.5c0.2-0.5-0.1-1-0.6-1.2c-0.5-0.2-1,0.1-1.2,0.6c-0.2,0.5,0.1,1,0.6,1.2C25.5,59.3,26,59,26.2,58.5z"></path>
	<path class="st0" d="M51.4,54.8c0.4-0.3,0.5-0.9,0.2-1.3c-0.3-0.4-0.9-0.5-1.3-0.2v0c-0.4,0.3-0.5,0.9-0.2,1.3
		C50.4,55,50.9,55.1,51.4,54.8z"></path>
	<path class="st0" d="M54.8,48.7c-0.3,0.4-0.2,1,0.2,1.3c0.4,0.3,1,0.2,1.3-0.2c0.3-0.4,0.2-1-0.2-1.3
		C55.7,48.2,55.1,48.3,54.8,48.7z"></path>
	<path class="st0" d="M45.4,58.3L45.4,58.3c0.5-0.2,0.7-0.8,0.5-1.2s-0.8-0.7-1.2-0.5c-0.5,0.2-0.7,0.8-0.5,1.2
		C44.4,58.3,44.9,58.5,45.4,58.3z"></path>
	<path class="st0" d="M38.7,60.3c0.5-0.1,0.9-0.6,0.8-1.1c-0.1-0.5-0.6-0.9-1.1-0.8s-0.9,0.6-0.8,1.1C37.7,60,38.2,60.4,38.7,60.3
		L38.7,60.3z"></path>
	<path class="st0" d="M32.8,59.7c0-0.5-0.3-1-0.9-1c-0.5,0-1,0.3-1,0.9c0,0.5,0.3,1,0.9,1C32.3,60.6,32.8,60.2,32.8,59.7z"></path>
	<path class="st0" d="M58.8,24.2c0.2,0.5,0.7,0.7,1.2,0.6c0.5-0.2,0.7-0.7,0.6-1.2l0,0c-0.2-0.5-0.7-0.7-1.2-0.6
		C58.9,23.1,58.6,23.7,58.8,24.2L58.8,24.2z"></path>
	<path class="st0" d="M61,36.2c-0.5-0.1-1,0.3-1.1,0.8c-0.1,0.5,0.3,1,0.8,1.1c0.5,0.1,1-0.3,1.1-0.8C61.9,36.7,61.5,36.3,61,36.2z"></path>
	<path class="st0" d="M61,29.5c-0.5,0-0.9,0.5-0.9,1c0,0.5,0.5,0.9,1,0.9c0.5,0,0.9-0.5,0.9-1C62,29.8,61.5,29.4,61,29.5z"></path>
	<path class="st0" d="M58.6,44.4c0.5,0.2,1,0,1.2-0.5l0,0c0.2-0.5,0-1-0.5-1.2c-0.5-0.2-1,0-1.2,0.5h0
		C57.9,43.6,58.1,44.2,58.6,44.4z"></path>
	<path class="st0" d="M56.7,16.9c-0.2,0-0.5,0.1-0.7,0.3c-0.2,0.2-0.3,0.4-0.3,0.7c0,0.2,0.1,0.5,0.3,0.7c0.2,0.2,0.4,0.3,0.7,0.3
		s0.5-0.1,0.7-0.3c0.2-0.2,0.3-0.4,0.3-0.7c0-0.3-0.1-0.5-0.3-0.7C57.2,17,56.9,16.9,56.7,16.9z"></path>
	<polygon class="st0" points="768.4,14.7 768.4,14.7 768.4,14.7 	"></polygon>
	<polygon class="st0" points="768.4,14.7 768.4,14.7 768.4,14.7 	"></polygon>
	<path class="st0" d="M765.4,28.6c0.6-0.2,1.3-0.2,2-0.1c0.6,0.2,1.2,0.5,1.7,0.9c0.5,0.5,0.8,1,0.9,1.7c0.2,0.6,0.1,1.3-0.1,2
		l-0.2,0.6l13.1,4.2l0.2-0.6c0.7-2.3,1-4.8,0.7-7.2l0,0c-0.3-2.4-1-4.8-2.3-6.9l-0.3-0.5l-9,5.3l0.3,0.5c0.7,1.1,1,2.5,0.9,3.9
		l0,0.6l7.1,0.4l0-0.6c0-0.8,0-1.5-0.1-2.3l0,0l0,0h0v0c-0.1-1-0.3-2-0.7-3l-0.2-0.6l-4.1,1.4l0.2,0.6c0.2,0.7,0.4,1.4,0.5,2.1
		l1.2-0.1c-0.1-0.6-0.2-1.2-0.3-1.8l1.9-0.6c0.2,0.7,0.4,1.4,0.4,2.2v0c0.1,0.5,0.1,1,0.1,1.5l-4.8-0.2c0-1.2-0.3-2.4-0.8-3.4l7-4.1
		c1,1.8,1.6,3.9,1.8,5.9l0,0c0.2,2.1,0,4.2-0.5,6.1l-10.9-3.5c0.1-0.7,0.1-1.4,0-2c-0.2-0.8-0.6-1.6-1.3-2.2l0,0
		c-0.6-0.6-1.4-1.1-2.2-1.3c-0.7-0.2-1.4-0.2-2,0l-3.5-10.9c2-0.6,4.1-0.7,6.2-0.5h0c2.1,0.2,4.1,0.9,5.9,1.8l-4.1,7
		c-1.1-0.5-2.2-0.8-3.4-0.8l-0.2-4.8c0.5,0,1,0,1.5,0.1l0,0c0.7,0.1,1.5,0.2,2.2,0.4l-0.6,1.9c-0.6-0.2-1.2-0.3-1.8-0.3l-0.1,1.2
		c0.7,0.1,1.4,0.2,2.1,0.5l0.6,0.2l1.4-4.1l-0.6-0.2c-1-0.3-2-0.6-3-0.7l0,0c-0.8-0.1-1.5-0.1-2.3-0.1l-0.6,0l0.4,7.1l0.6,0
		c1.4-0.1,2.7,0.3,3.9,0.9l0.5,0.3l5.3-9l-0.5-0.3c-2.1-1.2-4.5-2-6.9-2.3c-2.4-0.3-4.9,0-7.2,0.7l-0.6,0.2l4.2,13.1L765.4,28.6z"></path>
	
		<rect x="769.4" y="23.2" transform="matrix(0.707 -0.7072 0.7072 0.707 210.1152 554.8063)" class="st0" width="10.5" height="1.2"></rect>
	<path class="st0" d="M749.2,33.9L749.2,33.9L749.2,33.9c0.3,2.4,1,4.8,2.3,6.9l0.3,0.5l9-5.3l-0.3-0.5c-0.7-1.1-1-2.5-0.9-3.9
		l0-0.6l-7.1-0.4l0,0.6c0,0.8,0,1.5,0.1,2.3c0.1,1,0.3,2,0.7,3l0.2,0.6l4.1-1.4l-0.2-0.6c-0.2-0.7-0.4-1.4-0.5-2.1l-1.2,0.1
		c0.1,0.6,0.2,1.2,0.3,1.8l-1.9,0.6c-0.2-0.7-0.4-1.4-0.4-2.2l0,0c-0.1-0.5-0.1-1-0.1-1.5l4.8,0.2c0,1.2,0.3,2.4,0.8,3.4l-7,4.1
		c-1-1.8-1.6-3.9-1.8-5.9l0,0c-0.2-2.1,0-4.2,0.5-6.2l10.9,3.5c-0.1,0.7-0.1,1.4,0,2c0.2,0.8,0.6,1.6,1.3,2.2l0,0
		c0.6,0.6,1.4,1.1,2.2,1.3c0.7,0.2,1.4,0.2,2,0l3.5,10.9c-2,0.6-4.1,0.7-6.2,0.5l0,0c-2.1-0.2-4.1-0.9-5.9-1.8l4.1-7
		c1.1,0.5,2.2,0.8,3.4,0.8l0.2,4.8c-0.5,0-1,0-1.5-0.1h0c-0.7-0.1-1.5-0.2-2.2-0.4l0.6-1.9c0.6,0.2,1.2,0.3,1.8,0.3l0.1-1.2
		c-0.7-0.1-1.4-0.2-2.1-0.5l-0.6-0.2l-1.4,4.1l0.6,0.2c1,0.3,2,0.6,3,0.7l0,0c0.8,0.1,1.5,0.1,2.3,0.1l0.6,0l-0.4-7.1l-0.6,0
		c-1.4,0.1-2.7-0.3-3.9-0.9l-0.5-0.3l-5.3,9l0.5,0.3c2.1,1.2,4.5,2,6.9,2.3h0l0,0c2.4,0.3,4.9,0,7.2-0.7l0.6-0.2l-4.2-13.1l-0.6,0.2
		c-0.6,0.2-1.3,0.2-2,0.1c-0.6-0.2-1.2-0.5-1.7-0.9c-0.5-0.5-0.8-1-0.9-1.7c-0.2-0.6-0.1-1.3,0.1-2l0.2-0.6l-13.1-4.2l-0.2,0.6
		C749.2,29,749,31.5,749.2,33.9L749.2,33.9L749.2,33.9z"></path>
	
		<rect x="753.1" y="39.6" transform="matrix(0.707 -0.7072 0.7072 0.707 193.7818 548.0465)" class="st0" width="10.5" height="1.2"></rect>
	<path class="st0" d="M744.4,34.5c0.3,2.5,1,4.9,2.1,7.2c1.1,2.3,2.6,4.3,4.3,6.1c1.2,1.2,2.6,2.3,4.1,3.2l-0.3,0l2.3,1.1
		c2.3,1.1,4.7,1.8,7.2,2.1c2.5,0.3,5,0.1,7.4-0.4l1-0.2l0,0c2.1-0.6,4.1-1.4,5.9-2.6l0.5-0.3l0.5-0.3l-3.3-5.3
		c0.5-0.4,1-0.8,1.4-1.2l0,0l0.4-0.4l0.4-0.4l0,0c0.4-0.5,0.8-0.9,1.2-1.4l5.3,3.3l0.6-1c1.3-2.1,2.3-4.5,2.8-6.9l0.4-2l-0.1,0.1
		c0.3-1.8,0.3-3.7,0.1-5.5c-0.3-2.5-1-4.9-2.1-7.2l0,0l0,0l0,0l0,0c-1.1-2.2-2.6-4.3-4.3-6c-1.7-1.7-3.8-3.2-6-4.3h0l0,0l0,0l0,0
		c-2.3-1.1-4.7-1.8-7.2-2.1c-1.8-0.2-3.7-0.2-5.5,0.1l0.1-0.1l-2,0.4c-2.4,0.5-4.8,1.5-6.9,2.8l-0.5,0.3l-0.5,0.3l3.3,5.3
		c-0.5,0.4-1,0.8-1.4,1.2l0,0l-0.4,0.4v0l-0.4,0.4l0,0c-0.4,0.5-0.8,0.9-1.2,1.4l-5.3-3.3l-0.6,1c-0.6,1-1.2,2.1-1.7,3.3l0-1.5
		l-1.2,5.1C744.2,29.5,744.1,32.1,744.4,34.5z M776.6,42.1c-0.6,0.6-1.3,1.2-2,1.7l-3.9-6.3c0.3-0.2,0.5-0.4,0.7-0.6l-0.4-0.4
		l0.4,0.4c0.2-0.2,0.4-0.5,0.6-0.7l6.3,3.9C777.8,40.8,777.2,41.5,776.6,42.1z M756.4,21.9c0.6-0.6,1.3-1.2,2-1.7l3.9,6.3
		c-0.3,0.2-0.5,0.4-0.7,0.6l0.4,0.4l-0.4-0.4c-0.2,0.2-0.4,0.5-0.6,0.7l-6.3-3.9C755.2,23.2,755.8,22.6,756.4,21.9z M746.5,27.5
		c0.5-2,1.2-4,2.3-5.8l12.5,7.8l0.3-0.5c0.2-0.4,0.5-0.7,0.8-1c0.3-0.3,0.7-0.6,1-0.8l0.5-0.3l-7.8-12.5c1.8-1.1,3.8-1.9,5.8-2.3
		c2.2-0.5,4.6-0.6,6.8-0.4c2.3,0.3,4.5,0.9,6.6,1.9l0,0c2.1,1,4,2.4,5.6,4c1.6,1.6,3,3.5,4,5.6h0c1,2.1,1.6,4.3,1.9,6.6
		c0.3,2.3,0.1,4.6-0.4,6.8c-0.5,2-1.2,4-2.3,5.8l-12.5-7.8l-0.3,0.5c-0.2,0.4-0.5,0.7-0.8,1c-0.3,0.3-0.7,0.6-1,0.8l-0.5,0.3
		l7.8,12.5c-1.8,1.1-3.8,1.9-5.8,2.3v0c-2.2,0.5-4.6,0.6-6.8,0.4c-2.3-0.3-4.5-0.9-6.6-1.9h0c-2.1-1-4-2.4-5.6-4
		c-1.6-1.6-3-3.5-4-5.6v0c-1-2.1-1.6-4.3-1.9-6.6C745.9,32.1,746,29.7,746.5,27.5L746.5,27.5z"></path>
	<rect x="787" y="62.1" class="st0" width="1.2" height="379.5"></rect>
	<path class="st0" d="M743.3,18.8c0.3,0,0.5-0.1,0.7-0.3c0.2-0.2,0.3-0.4,0.3-0.7c0-0.2-0.1-0.5-0.3-0.7c-0.2-0.2-0.4-0.3-0.7-0.3
		c-0.2,0-0.5,0.1-0.7,0.3c-0.2,0.2-0.3,0.4-0.3,0.7c0,0.3,0.1,0.5,0.3,0.7C742.8,18.7,743.1,18.8,743.3,18.8z"></path>
	<path class="st0" d="M740,24.7c0.5,0.2,1-0.1,1.2-0.6c0.2-0.5-0.1-1-0.6-1.2c-0.5-0.2-1,0.1-1.2,0.6C739.3,24,739.5,24.5,740,24.7z
		"></path>
	<path class="st0" d="M769,59.5c0-0.5-0.5-0.9-1-0.9c-0.5,0-0.9,0.5-0.9,1c0,0.5,0.5,0.9,1,0.9C768.7,60.5,769.1,60,769,59.5z"></path>
	<path class="st0" d="M740.7,42.7c-0.5,0.2-0.7,0.8-0.5,1.2l0,0c0.2,0.5,0.8,0.7,1.2,0.5c0.5-0.2,0.7-0.8,0.5-1.2
		C741.7,42.7,741.1,42.5,740.7,42.7z"></path>
	<path class="st0" d="M738.8,31.3c0.5,0,1-0.3,1-0.9c0-0.5-0.3-1-0.9-1c-0.5,0-1,0.3-1,0.9C737.9,30.8,738.3,31.3,738.8,31.3z"></path>
	<path class="st0" d="M745,50c0.4-0.3,0.5-0.9,0.2-1.3h0c-0.3-0.4-0.9-0.5-1.3-0.2c-0.4,0.3-0.5,0.9-0.2,1.3
		C744,50.3,744.6,50.4,745,50z"></path>
	<path class="st0" d="M773.8,58.5c0.2,0.5,0.7,0.7,1.2,0.6c0.5-0.2,0.7-0.7,0.6-1.2c-0.2-0.5-0.7-0.7-1.2-0.6h0
		C773.9,57.5,773.6,58,773.8,58.5z"></path>
	<path class="st0" d="M754.6,58.3c0.5,0.2,1,0,1.2-0.5c0.2-0.5,0-1-0.5-1.2v0c-0.5-0.2-1,0-1.2,0.5
		C753.9,57.6,754.1,58.1,754.6,58.3L754.6,58.3z"></path>
	<path class="st0" d="M762.3,59.5c0.1-0.5-0.3-1-0.8-1.1c-0.5-0.1-1,0.3-1.1,0.8c-0.1,0.5,0.3,1,0.8,1.1
		C761.8,60.4,762.3,60,762.3,59.5z"></path>
	<path class="st0" d="M739,36.2c-0.5,0.1-0.9,0.6-0.8,1.1l0,0c0.1,0.5,0.6,0.9,1.1,0.8c0.5-0.1,0.9-0.6,0.8-1.1
		C740,36.4,739.5,36.1,739,36.2z"></path>
	<path class="st0" d="M750,54.6c0.3-0.4,0.2-1-0.2-1.3c-0.4-0.3-1-0.2-1.3,0.2c-0.3,0.4-0.2,1,0.2,1.3C749,55.1,749.6,55,750,54.6z"></path>
	<path class="st0" d="M781.4,54.5c-0.2-0.2-0.4-0.3-0.7-0.3c-0.2,0-0.5,0.1-0.7,0.3c-0.2,0.2-0.3,0.4-0.3,0.7s0.1,0.5,0.3,0.7
		c0.2,0.2,0.4,0.3,0.7,0.3c0.3,0,0.5-0.1,0.7-0.3c0.2-0.2,0.3-0.4,0.3-0.7C781.6,55,781.5,54.7,781.4,54.5z"></path>
	<path class="st0" d="M796,151.1l0-93.2l-7.4-7.4c10-11.3,9.6-28.5-1.2-39.3C776.6,0.4,759.3,0,748.1,10l-7.4-7.4l-559.3,0v0l-122,0
		L51.9,10C40.7,0,23.4,0.4,12.6,11.2C1.8,22,1.5,39.2,11.4,50.5L4,57.9l0,93.2l0,294.6l7.4,7.4c-10,11.3-9.6,28.5,1.2,39.3
		c10.8,10.8,28,11.2,39.3,1.2l7.4,7.4l127.7,0v0l553.5,0l7.4-7.4c11.3,10,28.5,9.6,39.3-1.2c10.8-10.8,11.2-28,1.2-39.3l7.4-7.4
		L796,151.1z M792.5,444.3l-8.8,8.8l1.2,1.2c9.8,9.8,9.8,25.8,0,35.6c-9.8,9.8-25.8,9.8-35.6,0l-1.2-1.2l-8.8,8.8l-678.3,0l-8.8-8.8
		l-1.2,1.2c-9.8,9.8-25.8,9.8-35.6,0c-9.8-9.8-9.8-25.8,0-35.6l1.2-1.2l-8.8-8.8v-385l8.8-8.8l-1.2-1.2c-9.8-9.8-9.8-25.8,0-35.6
		c9.8-9.8,25.8-9.8,35.6,0l1.2,1.2l8.8-8.8l678.3,0l8.8,8.8l1.2-1.2c9.8-9.8,25.8-9.8,35.6,0c9.8,9.8,9.8,25.8,0,35.6l-1.2,1.2
		l8.8,8.8V444.3z"></path>
	<polygon class="st0" points="783.8,473.5 783.8,473.5 783.8,473.5 	"></polygon>
	<polygon class="st0" points="783.8,473.5 783.8,473.5 783.8,473.5 	"></polygon>
	<path class="st0" d="M769.9,470.5c0.2,0.6,0.2,1.3,0.1,2c-0.2,0.6-0.5,1.2-0.9,1.7c-0.5,0.5-1,0.8-1.7,0.9c-0.6,0.2-1.3,0.1-2-0.1
		l-0.6-0.2l-4.2,13.1l0.6,0.2c2.3,0.7,4.8,1,7.2,0.7l0,0c2.4-0.3,4.8-1,6.9-2.3l0.5-0.3l-5.3-9l-0.5,0.3c-1.1,0.7-2.5,1-3.9,0.9
		l-0.6,0l-0.4,7.1l0.6,0c0.8,0,1.5,0,2.3-0.1c1-0.1,2-0.3,3-0.7l0.6-0.2l-1.4-4.1l-0.6,0.2c-0.7,0.2-1.4,0.4-2.1,0.5l0.1,1.2
		c0.6-0.1,1.2-0.2,1.7-0.3l0.6,1.9c-0.7,0.2-1.4,0.4-2.2,0.4h0c-0.5,0.1-1,0.1-1.5,0.1l0.2-4.8c1.2,0,2.4-0.3,3.4-0.8l4.1,7
		c-1.8,1-3.9,1.6-5.9,1.8l0,0c-2.1,0.2-4.2,0-6.1-0.5l3.5-10.9c0.7,0.1,1.4,0.1,2,0c0.8-0.2,1.6-0.6,2.2-1.3l0,0
		c0.6-0.6,1.1-1.4,1.3-2.2c0.2-0.7,0.2-1.4,0-2l10.9-3.5c0.6,2,0.7,4.1,0.5,6.2v0c-0.2,2.1-0.9,4.1-1.8,5.9l-7-4.1
		c0.5-1.1,0.8-2.2,0.8-3.4l4.8-0.2c0,0.5,0,1-0.1,1.5l0,0c-0.1,0.7-0.2,1.5-0.4,2.2l-1.9-0.6c0.2-0.6,0.3-1.2,0.3-1.8l-1.2-0.1
		c-0.1,0.7-0.2,1.4-0.5,2.1l-0.2,0.6l4.1,1.4l0.2-0.6c0.3-1,0.6-2,0.7-3l0,0c0.1-0.8,0.1-1.5,0.1-2.3l0-0.6l-7.1,0.4l0,0.6
		c0.1,1.4-0.3,2.7-0.9,3.9l-0.3,0.5l9,5.3l0.3-0.5c1.2-2.1,2-4.5,2.3-6.9c0.3-2.4,0-4.9-0.7-7.2l-0.2-0.6l-13.1,4.2L769.9,470.5z"></path>
	
		<rect x="774.1" y="474.5" transform="matrix(0.707 -0.7072 0.7072 0.707 -112.319 688.4017)" class="st0" width="1.2" height="10.5"></rect>
	<path class="st0" d="M767.6,468.2l0.6,0.2l4.2-13.1l-0.6-0.2c-2.3-0.7-4.8-1-7.2-0.7h0l0,0h0c-2.4,0.3-4.8,1-6.9,2.3l-0.5,0.3
		l5.3,9l0.5-0.3c1.1-0.7,2.5-1,3.9-0.9l0.6,0l0.4-7.1l-0.6,0c-0.8,0-1.5,0-2.3,0.1c-1,0.1-2,0.3-3,0.7l-0.6,0.2l1.4,4.1l0.6-0.2
		c0.7-0.2,1.4-0.4,2.1-0.5l-0.1-1.2c-0.6,0.1-1.2,0.2-1.8,0.3l-0.6-1.9c0.7-0.2,1.4-0.4,2.2-0.4l0,0c0.5-0.1,1-0.1,1.5-0.1l-0.2,4.8
		c-1.2,0-2.4,0.3-3.4,0.8l-4.1-7c1.8-1,3.9-1.6,5.9-1.8l0,0c2.1-0.2,4.2,0,6.2,0.5l-3.5,10.9c-0.7-0.1-1.4-0.1-2,0
		c-0.8,0.2-1.6,0.6-2.2,1.3l0,0c-0.6,0.6-1.1,1.4-1.3,2.2c-0.2,0.7-0.2,1.4,0,2l-10.9,3.5c-0.6-2-0.7-4.1-0.5-6.2l0,0
		c0.2-2.1,0.9-4.1,1.8-5.9l7,4.1c-0.5,1.1-0.8,2.2-0.8,3.4l-4.8,0.2c0-0.5,0-1,0.1-1.5v0c0.1-0.7,0.2-1.5,0.4-2.2l1.9,0.6
		c-0.2,0.6-0.3,1.2-0.3,1.7l1.2,0.1c0.1-0.7,0.2-1.4,0.5-2.1l0.2-0.6l-4.1-1.4l-0.2,0.6c-0.3,1-0.6,2-0.7,3l0,0
		c-0.1,0.8-0.1,1.5-0.1,2.3l0,0.6l7.1-0.4l0-0.6c-0.1-1.4,0.3-2.7,0.9-3.9l0.3-0.5l-9-5.3l-0.3,0.5c-1.2,2.1-2,4.5-2.3,6.9v0l0,0
		c-0.3,2.4,0,4.9,0.7,7.2l0.2,0.6l13.1-4.2l-0.2-0.6c-0.2-0.6-0.2-1.3-0.1-2c0.2-0.6,0.5-1.2,0.9-1.7c0.5-0.5,1-0.8,1.7-0.9
		C766.3,468,767,468,767.6,468.2z"></path>
	
		<rect x="757.7" y="458.2" transform="matrix(0.7071 -0.7071 0.7071 0.7071 -105.5864 671.9483)" class="st0" width="1.2" height="10.5"></rect>
	<path class="st0" d="M778.2,460.7L778.2,460.7l-0.4-0.4h0l-0.4-0.4l0,0c-0.5-0.4-0.9-0.8-1.4-1.2l3.3-5.3l-1-0.6
		c-1-0.6-2.1-1.2-3.3-1.7l1.5,0l-5.1-1.2c-2.4-0.5-4.9-0.7-7.4-0.4c-2.5,0.3-4.9,1-7.2,2.1c-2.3,1.1-4.3,2.6-6.1,4.3
		c-1.2,1.2-2.3,2.6-3.2,4.1l0-0.3l-1.1,2.3c-1.1,2.3-1.8,4.7-2.1,7.2c-0.3,2.5-0.1,5,0.4,7.4l0.2,1l0,0c0.6,2.1,1.4,4.1,2.6,5.9
		l0.3,0.5l0.3,0.5l5.3-3.3c0.4,0.5,0.8,1,1.2,1.4l0,0l0.4,0.4l0.4,0.4l0,0c0.5,0.4,0.9,0.8,1.4,1.2l-3.3,5.3l1,0.6
		c2.1,1.3,4.5,2.3,6.9,2.8l2,0.4l-0.1-0.1c1.8,0.3,3.7,0.3,5.5,0.1c2.5-0.3,4.9-1,7.2-2.1l0,0l0,0l0,0h0c2.2-1.1,4.3-2.6,6-4.3
		c1.7-1.7,3.2-3.8,4.3-6v0l0,0l0,0c1.1-2.3,1.8-4.7,2.1-7.2c0.2-1.8,0.2-3.7-0.1-5.5l0.1,0.1l-0.4-2c-0.5-2.4-1.5-4.8-2.8-6.9
		l-0.3-0.5l-0.3-0.5l-5.3,3.3C779,461.7,778.6,461.2,778.2,460.7z M776.6,461.5c0.6,0.6,1.2,1.3,1.7,2l-6.3,3.9
		c-0.2-0.3-0.4-0.5-0.6-0.7l-0.4,0.4l0.4-0.4c-0.2-0.2-0.5-0.4-0.7-0.6l3.9-6.3C775.3,460.4,776,460.9,776.6,461.5z M756.4,481.7
		c-0.6-0.6-1.2-1.3-1.7-2l6.3-3.9c0.2,0.3,0.4,0.5,0.6,0.7l0.4-0.4l-0.4,0.4c0.2,0.2,0.5,0.4,0.7,0.6l-3.9,6.3
		C757.7,482.9,757,482.3,756.4,481.7z M786.5,467.1c0.5,2.2,0.6,4.6,0.4,6.8c-0.3,2.3-0.9,4.5-1.9,6.6l0,0c-1,2.1-2.4,4-4,5.6
		c-1.6,1.6-3.5,3-5.6,4v0c-2.1,1-4.3,1.6-6.6,1.9c-2.3,0.3-4.6,0.1-6.8-0.4c-2-0.5-4-1.2-5.8-2.3l7.8-12.5l-0.5-0.3
		c-0.4-0.2-0.7-0.5-1-0.8c-0.3-0.3-0.6-0.7-0.8-1l-0.3-0.5l-12.5,7.8c-1.1-1.8-1.9-3.8-2.3-5.9h0c-0.5-2.2-0.6-4.6-0.4-6.8
		c0.3-2.3,0.9-4.5,1.9-6.6v0c1-2.1,2.4-4,4-5.6c1.6-1.6,3.5-3,5.6-4h0c2.1-1,4.3-1.6,6.6-1.9c2.3-0.3,4.6-0.1,6.8,0.4v0
		c2,0.5,4,1.2,5.8,2.3l-7.8,12.5l0.5,0.3c0.4,0.2,0.7,0.5,1,0.8c0.3,0.3,0.6,0.7,0.8,1l0.3,0.5l12.5-7.8
		C785.2,463.1,786,465.1,786.5,467.1z"></path>
	<rect x="63.5" y="492.1" class="st0" width="672.9" height="1.2"></rect>
	<path class="st0" d="M780.7,447.5c-0.3,0-0.5,0.1-0.7,0.3c-0.2,0.2-0.3,0.4-0.3,0.7c0,0.3,0.1,0.5,0.3,0.7c0.2,0.2,0.4,0.3,0.7,0.3
		c0.2,0,0.5-0.1,0.7-0.3c0.2-0.2,0.3-0.4,0.3-0.7c0-0.2-0.1-0.5-0.3-0.7C781.2,447.6,780.9,447.5,780.7,447.5z"></path>
	<path class="st0" d="M745.2,454.9c0.3-0.4,0.2-1-0.2-1.3c-0.4-0.3-1-0.2-1.3,0.2c-0.3,0.4-0.2,1,0.2,1.3
		C744.3,455.4,744.9,455.3,745.2,454.9z"></path>
	<path class="st0" d="M749.8,450.4L749.8,450.4c0.4-0.3,0.5-0.9,0.2-1.3c-0.3-0.4-0.9-0.5-1.3-0.2c-0.4,0.3-0.5,0.9-0.2,1.3
		C748.8,450.6,749.4,450.7,749.8,450.4z"></path>
	<path class="st0" d="M768,445c0.5,0,1-0.3,1-0.9c0-0.5-0.3-1-0.9-1c-0.5,0-1,0.3-1,0.9C767.1,444.5,767.5,444.9,768,445z"></path>
	<path class="st0" d="M774.4,446.4c0.5,0.2,1-0.1,1.2-0.6c0.2-0.5-0.1-1-0.6-1.2c-0.5-0.2-1,0.1-1.2,0.6
		C773.6,445.6,773.9,446.2,774.4,446.4z"></path>
	<path class="st0" d="M761.6,445.2c0.5-0.1,0.9-0.6,0.8-1.1c-0.1-0.5-0.6-0.9-1.1-0.8c-0.5,0.1-0.9,0.6-0.8,1.1
		C760.6,445,761.1,445.3,761.6,445.2z"></path>
	<path class="st0" d="M755.4,447c0.5-0.2,0.7-0.8,0.5-1.2c-0.2-0.5-0.8-0.7-1.2-0.5c-0.5,0.2-0.7,0.8-0.5,1.2
		C754.3,447,754.9,447.3,755.4,447z"></path>
	<path class="st0" d="M739.8,473.2c0-0.5-0.5-0.9-1-0.9c-0.5,0-0.9,0.5-0.9,1c0,0.5,0.5,0.9,1,0.9
		C739.5,474.1,739.9,473.7,739.8,473.2z"></path>
	<path class="st0" d="M739.3,465.6c-0.5-0.1-1,0.3-1.1,0.8c-0.1,0.5,0.3,1,0.8,1.1c0.5,0.1,1-0.3,1.1-0.8
		C740.2,466.2,739.8,465.7,739.3,465.6z"></path>
	<path class="st0" d="M740,478.9c-0.5,0.2-0.7,0.7-0.6,1.2c0.2,0.5,0.7,0.7,1.2,0.6c0.5-0.2,0.7-0.7,0.6-1.2
		C741,479,740.5,478.7,740,478.9z"></path>
	<path class="st0" d="M741.4,459.3c-0.5-0.2-1,0-1.2,0.5h0c-0.2,0.5,0,1,0.5,1.2c0.5,0.2,1,0,1.2-0.5h0
		C742.1,460,741.9,459.5,741.4,459.3z"></path>
	<path class="st0" d="M743.3,484.9c-0.3,0-0.5,0.1-0.7,0.3c-0.2,0.2-0.3,0.4-0.3,0.7c0,0.3,0.1,0.5,0.3,0.7c0.2,0.2,0.4,0.3,0.7,0.3
		c0.2,0,0.5-0.1,0.7-0.3c0.2-0.2,0.3-0.4,0.3-0.7c0-0.2-0.1-0.5-0.3-0.7C743.8,485,743.6,484.9,743.3,484.9z"></path>
	<polygon class="st0" points="31.6,488.9 31.6,488.9 31.6,488.9 	"></polygon>
	<polygon class="st0" points="31.6,488.9 31.6,488.9 31.6,488.9 	"></polygon>
	<path class="st0" d="M34.6,475c-0.6,0.2-1.3,0.2-2,0.1c-0.6-0.2-1.2-0.5-1.7-0.9c-0.5-0.5-0.8-1-0.9-1.7c-0.2-0.6-0.1-1.3,0.1-2
		l0.2-0.6l-13.1-4.2l-0.2,0.6c-0.7,2.3-1,4.8-0.7,7.2l0,0c0.3,2.4,1,4.8,2.3,6.9l0.3,0.5l9-5.3l-0.3-0.5c-0.7-1.1-1-2.5-0.9-3.9
		l0-0.6l-7.1-0.4l0,0.6c0,0.8,0,1.5,0.1,2.3l0,0l0,0h0v0c0.1,1,0.3,2,0.7,3l0.2,0.6l4.1-1.4l-0.2-0.6c-0.2-0.7-0.4-1.4-0.5-2.1
		l-1.2,0.1c0.1,0.6,0.2,1.2,0.3,1.8l-1.9,0.6c-0.2-0.7-0.4-1.4-0.4-2.2v0c-0.1-0.5-0.1-1-0.1-1.5l4.8,0.2c0,1.2,0.3,2.4,0.8,3.4
		l-7,4.1c-1-1.8-1.6-3.9-1.8-5.9l0,0c-0.2-2.1,0-4.2,0.5-6.1l10.9,3.5c-0.1,0.7-0.1,1.4,0,2c0.2,0.8,0.6,1.6,1.3,2.2l0,0
		c0.6,0.6,1.4,1.1,2.2,1.3c0.7,0.2,1.4,0.2,2,0l3.5,10.9c-2,0.6-4.1,0.7-6.2,0.5h0c-2.1-0.2-4.1-0.9-5.9-1.8l4.1-7
		c1.1,0.5,2.2,0.8,3.4,0.8l0.3,4.8c-0.5,0-1,0-1.5-0.1l0,0c-0.7-0.1-1.5-0.2-2.2-0.4l0.6-1.9c0.6,0.2,1.2,0.3,1.8,0.3l0.1-1.2
		c-0.7-0.1-1.4-0.2-2.1-0.5l-0.6-0.2l-1.4,4.1l0.6,0.2c1,0.3,2,0.6,3,0.7l0,0c0.8,0.1,1.5,0.1,2.3,0.1l0.6,0l-0.4-7.1l-0.6,0
		c-1.4,0.1-2.7-0.3-3.9-0.9l-0.5-0.3l-5.3,9l0.5,0.3c2.1,1.2,4.5,2,6.9,2.3c2.4,0.3,4.9,0,7.2-0.7l0.6-0.2l-4.2-13.1L34.6,475z"></path>
	
		<rect x="20.1" y="479.2" transform="matrix(0.7071 -0.7071 0.7071 0.7071 -331.8277 158.449)" class="st0" width="10.5" height="1.2"></rect>
	<path class="st0" d="M50.8,469.8L50.8,469.8L50.8,469.8c-0.3-2.4-1-4.8-2.3-6.9l-0.3-0.5l-9,5.3l0.3,0.5c0.7,1.1,1,2.5,0.9,3.9
		l0,0.6l7.1,0.4l0-0.6c0-0.8,0-1.5-0.1-2.3c-0.1-1-0.3-2-0.7-3l-0.2-0.6l-4.1,1.4l0.2,0.6c0.2,0.7,0.4,1.4,0.5,2.1l1.2-0.1
		c-0.1-0.6-0.2-1.2-0.3-1.8l1.9-0.6c0.2,0.7,0.4,1.4,0.4,2.2l0,0c0.1,0.5,0.1,1,0.1,1.5l-4.8-0.2c0-1.2-0.3-2.4-0.8-3.4l7-4.1
		c1,1.8,1.6,3.9,1.8,5.9l0,0c0.2,2.1,0,4.2-0.5,6.2l-10.9-3.5c0.1-0.7,0.1-1.4,0-2c-0.2-0.8-0.6-1.6-1.3-2.2l0,0
		c-0.6-0.6-1.4-1.1-2.2-1.3c-0.7-0.2-1.4-0.2-2,0L29.1,456c2-0.6,4.1-0.7,6.2-0.5l0,0c2.1,0.2,4.1,0.9,5.9,1.8l-4.1,7
		c-1.1-0.5-2.2-0.8-3.4-0.8l-0.2-4.8c0.5,0,1,0,1.5,0.1h0c0.7,0.1,1.5,0.2,2.2,0.4l-0.6,1.9c-0.6-0.2-1.2-0.3-1.7-0.3l-0.1,1.2
		c0.7,0.1,1.4,0.2,2.1,0.5l0.6,0.2l1.4-4.1l-0.6-0.2c-1-0.3-2-0.6-3-0.7l0,0c-0.8-0.1-1.5-0.1-2.3-0.1l-0.6,0l0.4,7.1l0.6,0
		c1.4-0.1,2.7,0.3,3.9,0.9l0.5,0.3l5.3-9l-0.5-0.3c-2.1-1.2-4.5-2-6.9-2.3h0l0,0c-2.4-0.3-4.9,0-7.2,0.7l-0.6,0.2l4.2,13.1l0.6-0.2
		c0.6-0.2,1.3-0.2,2-0.1c0.6,0.2,1.2,0.5,1.7,0.9c0.5,0.5,0.8,1,0.9,1.7c0.2,0.6,0.1,1.3-0.1,2l-0.2,0.6l13.1,4.2l0.2-0.6
		C50.8,474.6,51,472.2,50.8,469.8L50.8,469.8L50.8,469.8z"></path>
	
		<rect x="36.4" y="462.9" transform="matrix(0.7071 -0.7071 0.7071 0.7071 -315.52 165.2054)" class="st0" width="10.5" height="1.2"></rect>
	<path class="st0" d="M55.6,469.1c-0.3-2.5-1-4.9-2.1-7.2c-1.1-2.3-2.6-4.3-4.3-6.1c-1.2-1.2-2.6-2.3-4.1-3.2l0.3,0l-2.3-1.1
		c-2.3-1.1-4.7-1.8-7.2-2.1c-2.5-0.3-5-0.1-7.4,0.4l-1,0.2l0,0c-2.1,0.6-4.1,1.4-5.9,2.6l-0.5,0.3l-0.5,0.3l3.3,5.3
		c-0.5,0.4-1,0.8-1.4,1.2l0,0l-0.4,0.4l-0.4,0.4l0,0c-0.4,0.5-0.8,0.9-1.2,1.4l-5.3-3.3l-0.6,1c-1.3,2.1-2.3,4.5-2.8,6.9l-0.4,2
		l0.1-0.1c-0.3,1.8-0.3,3.7-0.1,5.5c0.3,2.5,1,4.9,2.1,7.2l0,0l0,0l0,0l0,0c1.1,2.2,2.6,4.3,4.3,6c1.7,1.7,3.8,3.2,6,4.3h0l0,0h0
		l0,0c2.3,1.1,4.7,1.8,7.2,2.1c1.8,0.2,3.7,0.2,5.5-0.1l-0.1,0.1l2-0.4c2.4-0.5,4.8-1.5,6.9-2.8l0.5-0.3l0.5-0.3l-3.3-5.3
		c0.5-0.4,1-0.8,1.4-1.2l0,0l0.4-0.4l0,0l0.4-0.4l0,0c0.4-0.5,0.8-0.9,1.2-1.4l5.3,3.3l0.6-1c0.6-1,1.2-2.1,1.7-3.3l0,1.5l1.2-5.1
		C55.8,474.1,55.9,471.6,55.6,469.1z M23.4,461.5c0.6-0.6,1.3-1.2,2-1.7l3.9,6.3c-0.3,0.2-0.5,0.4-0.7,0.6l0.4,0.4l-0.4-0.4
		c-0.2,0.2-0.4,0.5-0.6,0.7l-6.3-3.9C22.2,462.9,22.8,462.2,23.4,461.5z M43.6,481.7c-0.6,0.6-1.3,1.2-2,1.7l-3.9-6.3
		c0.3-0.2,0.5-0.4,0.7-0.6l-0.4-0.4l0.4,0.4c0.2-0.2,0.4-0.5,0.6-0.7l6.3,3.9C44.8,480.4,44.2,481.1,43.6,481.7z M53.5,476.2
		c-0.5,2-1.2,4-2.3,5.8l-12.5-7.8l-0.3,0.5c-0.2,0.4-0.5,0.7-0.8,1c-0.3,0.3-0.7,0.6-1,0.8l-0.5,0.3l7.8,12.5
		c-1.8,1.1-3.8,1.9-5.8,2.3c-2.2,0.5-4.6,0.6-6.8,0.4c-2.3-0.3-4.5-0.9-6.6-1.9l0,0c-2.1-1-4-2.4-5.6-4c-1.6-1.6-3-3.5-4-5.6h0
		c-1-2.1-1.6-4.3-1.9-6.6c-0.3-2.3-0.1-4.6,0.4-6.8c0.5-2.1,1.2-4,2.3-5.9l12.5,7.8l0.3-0.5c0.2-0.4,0.5-0.7,0.8-1
		c0.3-0.3,0.7-0.6,1-0.8l0.5-0.3L23.1,454c1.8-1.1,3.8-1.9,5.9-2.3v0c2.2-0.5,4.6-0.6,6.8-0.4c2.3,0.3,4.5,0.9,6.6,1.9h0
		c2.1,1,4,2.4,5.6,4c1.6,1.6,3,3.5,4,5.6v0c1,2.1,1.6,4.3,1.9,6.6C54.1,471.6,54,473.9,53.5,476.2z"></path>
	<path class="st0" d="M56.7,484.9c-0.3,0-0.5,0.1-0.7,0.3c-0.2,0.2-0.3,0.4-0.3,0.7c0,0.2,0.1,0.5,0.3,0.7c0.2,0.2,0.4,0.3,0.7,0.3
		c0.2,0,0.5-0.1,0.7-0.3c0.2-0.2,0.3-0.4,0.3-0.7c0-0.3-0.1-0.5-0.3-0.7C57.2,485,56.9,484.9,56.7,484.9z"></path>
	<path class="st0" d="M26.2,445.1c-0.2-0.5-0.7-0.7-1.2-0.6c-0.5,0.2-0.7,0.7-0.6,1.2c0.2,0.5,0.7,0.7,1.2,0.6h0
		C26.1,446.2,26.4,445.6,26.2,445.1z"></path>
	<path class="st0" d="M51.5,450.2c0.3-0.4,0.2-1-0.2-1.3s-1-0.2-1.3,0.2c-0.3,0.4-0.2,1,0.2,1.3C50.6,450.7,51.2,450.6,51.5,450.2z"></path>
	<path class="st0" d="M44.6,447L44.6,447c0.5,0.2,1,0,1.2-0.5c0.2-0.5,0-1-0.5-1.2l0,0c-0.5-0.2-1,0-1.2,0.5
		C44,446.3,44.2,446.8,44.6,447z"></path>
	<path class="st0" d="M55,453.6c-0.4,0.3-0.5,0.9-0.2,1.3c0.3,0.4,0.9,0.5,1.3,0.2c0.4-0.3,0.5-0.9,0.2-1.3
		C56,453.4,55.4,453.3,55,453.6z"></path>
	<path class="st0" d="M38.4,445.2c0.5,0.1,1-0.3,1.1-0.8c0.1-0.5-0.3-1-0.8-1.1c-0.5-0.1-1,0.3-1.1,0.8
		C37.6,444.7,37.9,445.1,38.4,445.2z"></path>
	<path class="st0" d="M32,445c0.5,0,0.9-0.5,0.9-1c0-0.5-0.5-0.9-1-0.9c-0.5,0-0.9,0.5-0.9,1S31.5,445,32,445z"></path>
	<path class="st0" d="M61.2,472.3c-0.5,0-1,0.3-1,0.9c0,0.5,0.3,1,0.9,1s1-0.3,1-0.9C62.1,472.8,61.7,472.4,61.2,472.3z"></path>
	<path class="st0" d="M60.7,465.6c-0.5,0.1-0.9,0.6-0.8,1.1c0.1,0.5,0.6,0.9,1.1,0.8c0.5-0.1,0.9-0.6,0.8-1.1h0
		C61.7,465.9,61.2,465.6,60.7,465.6z"></path>
	<path class="st0" d="M59.3,461c0.5-0.2,0.7-0.8,0.5-1.2h0c-0.2-0.5-0.8-0.7-1.2-0.5c-0.5,0.2-0.7,0.8-0.5,1.2
		C58.3,461,58.9,461.2,59.3,461z"></path>
	<path class="st0" d="M60,478.9c-0.5-0.2-1,0.1-1.2,0.6c-0.2,0.5,0.1,1,0.6,1.2c0.5,0.2,1-0.1,1.2-0.6
		C60.7,479.6,60.5,479.1,60,478.9z"></path>
	<path class="st0" d="M19.3,447.5c-0.3,0-0.5,0.1-0.7,0.3c-0.2,0.2-0.3,0.4-0.3,0.7c0,0.2,0.1,0.5,0.3,0.7c0.2,0.2,0.4,0.3,0.7,0.3
		c0.2,0,0.5-0.1,0.7-0.3c0.2-0.2,0.3-0.4,0.3-0.7s-0.1-0.5-0.3-0.7C19.8,447.6,19.6,447.5,19.3,447.5z"></path>
</g>
</svg>
