<?xml version="1.0" standalone="no"?>
<!DOCTYPE svg PUBLIC "-//W3C//DTD SVG 20010904//EN"
 "http://www.w3.org/TR/2001/REC-SVG-20010904/DTD/svg10.dtd">
<svg version="1.0" xmlns="http://www.w3.org/2000/svg"
 width="421.000000pt" height="97.000000pt" viewBox="0 0 421.000000 97.000000"
 preserveAspectRatio="xMidYMid meet">

<g transform="translate(0.000000,97.000000) scale(0.100000,-0.100000)"
fill="red" stroke="none">
<path d="M220 690 l0 -120 155 0 155 0 0 105 0 105 120 0 120 0 0 -90 0 -90
-80 0 -80 0 0 55 0 55 50 0 c43 0 50 -3 50 -20 0 -16 -7 -20 -35 -20 -24 0
-35 -5 -35 -15 0 -11 12 -15 50 -15 l50 0 0 50 0 50 -80 0 -80 0 0 -85 0 -85
110 0 110 0 0 120 0 120 -150 0 -150 0 0 -105 0 -105 -125 0 -125 0 0 90 0 90
80 0 80 0 0 -55 0 -55 -45 0 c-38 0 -45 3 -45 20 0 16 7 20 30 20 20 0 30 5
30 15 0 11 -12 15 -45 15 l-45 0 0 -50 0 -50 75 0 75 0 0 85 0 85 -110 0 -110
0 0 -120z"/>
<path d="M860 690 l0 -120 150 0 150 0 0 105 0 105 125 0 125 0 0 -90 0 -90
-80 0 -80 0 0 55 0 55 51 0 c43 0 50 -3 47 -17 -2 -12 -14 -19 -36 -21 -52 -5
-42 -32 13 -32 l45 0 0 50 0 50 -75 0 -75 0 0 -85 0 -85 110 0 110 0 0 120 0
120 -155 0 -155 0 0 -105 0 -105 -120 0 -120 0 0 90 0 90 80 0 80 0 0 -55 0
-55 -50 0 c-43 0 -50 3 -50 20 0 16 7 20 35 20 24 0 35 5 35 15 0 11 -12 15
-50 15 l-50 0 0 -50 0 -50 80 0 80 0 0 85 0 85 -110 0 -110 0 0 -120z"/>
<path d="M1500 690 l0 -120 150 0 150 0 0 105 0 105 125 0 126 0 -3 -87 -3
-88 -80 0 -80 0 -3 53 -3 52 50 0 c44 0 51 -3 51 -20 0 -16 -7 -20 -30 -20
-20 0 -30 -5 -30 -15 0 -11 12 -15 45 -15 l45 0 0 50 0 50 -80 0 -80 0 0 -85
0 -85 115 0 115 0 0 120 0 120 -155 0 -155 0 0 -105 0 -106 -122 3 -123 3 0
85 0 85 83 3 82 3 0 -56 0 -55 -50 0 c-43 0 -50 3 -50 20 0 16 7 20 30 20 20
0 30 5 30 15 0 11 -12 15 -45 15 l-45 0 0 -50 0 -50 80 0 80 0 0 85 0 85 -110
0 -110 0 0 -120z"/>
<path d="M2130 690 l0 -120 155 0 155 0 0 105 0 105 120 0 120 0 0 -90 0 -90
-80 0 -80 0 0 55 0 55 50 0 c43 0 50 -3 50 -20 0 -16 -7 -20 -35 -20 -24 0
-35 -5 -35 -15 0 -11 12 -15 50 -15 l50 0 0 50 0 50 -80 0 -80 0 0 -85 0 -85
110 0 110 0 0 120 0 120 -150 0 -149 0 -3 -102 -3 -103 -122 -3 -123 -3 0 91
0 90 80 0 80 0 0 -55 0 -55 -45 0 c-38 0 -45 3 -45 20 0 16 7 20 30 20 20 0
30 5 30 15 0 11 -12 15 -45 15 l-45 0 0 -50 0 -50 75 0 75 0 0 85 0 85 -110 0
-110 0 0 -120z"/>
<path d="M2770 690 l0 -120 150 0 150 0 0 105 0 105 125 0 125 0 0 -90 0 -90
-80 0 -80 0 0 55 0 55 51 0 c43 0 50 -3 47 -17 -2 -12 -14 -19 -36 -21 -52 -5
-42 -32 13 -32 l45 0 0 50 0 50 -75 0 -75 0 0 -85 0 -85 110 0 110 0 0 120 0
120 -155 0 -155 0 0 -105 0 -105 -120 0 -120 0 0 90 0 90 80 0 80 0 0 -55 0
-55 -50 0 c-43 0 -50 3 -50 20 0 16 7 20 35 20 24 0 35 5 35 15 0 11 -12 15
-50 15 l-50 0 0 -50 0 -50 80 0 80 0 0 85 0 85 -110 0 -110 0 0 -120z"/>
<path d="M3400 690 l0 -120 155 0 155 0 0 105 0 106 123 -3 122 -3 0 -85 0
-85 -82 -3 -83 -3 0 56 0 55 50 0 c43 0 50 -3 50 -20 0 -16 -7 -20 -30 -20
-20 0 -30 -5 -30 -15 0 -11 12 -15 45 -15 l45 0 0 50 0 50 -80 0 -80 0 0 -85
0 -85 115 0 115 0 0 120 0 120 -155 0 -155 0 0 -105 0 -106 -122 3 -123 3 0
85 0 85 83 3 82 3 0 -56 0 -55 -50 0 c-43 0 -50 3 -50 20 0 16 7 20 30 20 20
0 30 5 30 15 0 11 -12 15 -45 15 l-45 0 0 -50 0 -50 80 0 80 0 0 85 0 85 -115
0 -115 0 0 -120z"/>
<path d="M230 215 l0 -55 75 0 75 0 0 50 0 50 60 0 60 0 0 -45 0 -45 -40 0
c-38 0 -40 2 -40 30 0 25 4 30 25 30 29 0 35 -26 8 -33 -14 -4 -12 -5 5 -6 17
-1 22 4 22 24 0 22 -4 25 -35 25 -34 0 -35 -1 -35 -40 l0 -40 55 0 55 0 0 55
0 55 -75 0 -75 0 0 -50 0 -50 -65 0 -65 0 0 45 0 45 40 0 c38 0 40 -2 40 -30
0 -23 -5 -30 -19 -30 -30 0 -35 19 -9 29 23 10 22 10 -4 10 -23 1 -28 -3 -28
-24 0 -22 4 -25 40 -25 l40 0 0 40 0 40 -55 0 -55 0 0 -55z"/>
<path d="M550 215 l0 -55 70 0 70 0 0 50 0 50 65 0 65 0 0 -45 0 -45 -40 0
c-38 0 -40 2 -40 30 0 23 5 30 19 30 30 0 35 -19 9 -29 -23 -10 -22 -10 5 -10
22 -1 27 3 27 24 0 23 -4 25 -40 25 l-40 0 0 -40 0 -40 55 0 55 0 0 55 0 55
-75 0 -75 0 0 -50 0 -50 -60 0 -60 0 0 45 0 45 40 0 c38 0 40 -2 40 -30 0 -25
-4 -30 -25 -30 -29 0 -35 26 -7 33 13 4 11 5 -5 6 -18 1 -23 -4 -23 -24 0 -22
4 -25 35 -25 34 0 35 1 35 40 l0 40 -50 0 -50 0 0 -55z"/>
<path d="M860 215 l0 -55 75 0 75 0 0 50 0 50 60 0 60 0 0 -45 0 -45 -40 0
c-38 0 -40 2 -40 30 0 25 4 30 25 30 29 0 35 -26 8 -33 -14 -4 -12 -5 5 -6 17
-1 22 4 22 24 0 22 -4 25 -35 25 -34 0 -35 -1 -35 -40 l0 -40 55 0 55 0 0 55
0 55 -74 0 -75 0 -3 -47 -3 -48 -62 -3 -63 -3 0 46 0 45 40 0 c38 0 40 -2 40
-30 0 -23 -5 -30 -19 -30 -30 0 -35 19 -9 29 23 10 22 10 -4 10 -23 1 -28 -3
-28 -24 0 -22 4 -25 40 -25 l40 0 0 40 0 40 -55 0 -55 0 0 -55z"/>
<path d="M1170 215 l0 -55 75 0 75 0 0 50 0 50 65 0 65 0 0 -46 0 -45 -42 3
c-38 3 -43 6 -43 28 0 27 29 40 48 21 7 -7 3 -13 -14 -20 l-24 -10 28 0 c22
-1 27 3 27 24 0 23 -4 25 -40 25 l-40 0 0 -40 0 -40 55 0 55 0 0 55 0 55 -75
0 -75 0 0 -50 0 -50 -60 0 -60 0 0 45 0 45 40 0 c38 0 40 -2 40 -30 0 -25 -4
-30 -25 -30 -29 0 -35 26 -7 33 13 4 11 5 -5 6 -18 1 -23 -4 -23 -24 0 -22 4
-25 35 -25 34 0 35 1 35 40 l0 40 -55 0 -55 0 0 -55z"/>
<path d="M1490 215 l0 -55 75 0 75 0 0 50 0 50 60 0 60 0 0 -45 0 -45 -40 0
c-38 0 -40 2 -40 30 0 25 4 30 25 30 29 0 35 -26 8 -33 -14 -4 -12 -5 5 -6 17
-1 22 4 22 24 0 22 -4 25 -35 25 -34 0 -35 -1 -35 -40 l0 -40 50 0 50 0 0 55
0 55 -69 0 -70 0 -3 -47 -3 -48 -62 -3 -63 -3 0 46 0 45 40 0 c38 0 40 -2 40
-30 0 -23 -5 -30 -19 -30 -30 0 -35 19 -9 29 23 10 22 10 -4 10 -23 1 -28 -3
-28 -24 0 -22 4 -25 40 -25 l40 0 0 40 0 40 -55 0 -55 0 0 -55z"/>
<path d="M1800 215 l0 -55 75 0 75 0 0 50 0 50 66 0 65 0 -3 -42 c-3 -43 -3
-43 -43 -43 -36 0 -40 3 -40 25 0 18 6 26 23 28 27 4 31 -24 5 -31 -11 -3 -7
-5 10 -6 22 -1 27 3 27 24 0 23 -4 25 -40 25 l-40 0 0 -40 0 -40 55 0 55 0 0
55 0 55 -75 0 -75 0 0 -50 0 -50 -60 0 -60 0 0 45 0 45 40 0 c38 0 40 -2 40
-30 0 -25 -4 -30 -25 -30 -29 0 -35 26 -7 33 13 4 11 5 -5 6 -18 1 -23 -4 -23
-24 0 -22 4 -25 35 -25 34 0 35 1 35 40 l0 40 -55 0 -55 0 0 -55z"/>
<path d="M2120 215 l0 -55 75 0 75 0 0 50 0 50 60 0 60 0 0 -45 0 -45 -40 0
c-38 0 -40 2 -40 30 0 25 4 30 25 30 29 0 35 -26 8 -33 -14 -4 -12 -5 5 -6 17
-1 22 4 22 24 0 22 -4 25 -35 25 -34 0 -35 -1 -35 -40 l0 -40 50 0 50 0 0 55
0 55 -75 0 -75 0 0 -50 0 -50 -60 0 -60 0 0 45 0 45 40 0 c38 0 40 -2 40 -30
0 -23 -5 -30 -19 -30 -27 0 -35 17 -14 29 16 9 16 10 -4 11 -18 0 -23 -6 -23
-25 0 -22 4 -25 40 -25 l40 0 0 40 0 40 -55 0 -55 0 0 -55z"/>
<path d="M2430 215 l0 -55 75 0 75 0 0 50 0 51 63 -3 62 -3 0 -40 0 -40 -43
-3 c-42 -3 -43 -2 -40 25 2 20 9 29 26 31 27 4 31 -24 5 -31 -11 -3 -7 -5 10
-6 22 -1 27 3 27 24 0 23 -4 25 -40 25 l-40 0 0 -40 0 -40 55 0 55 0 0 55 0
55 -75 0 -75 0 0 -50 0 -50 -60 0 -60 0 0 45 0 45 41 0 c38 0 40 -1 37 -27 -2
-20 -9 -29 -25 -31 -28 -4 -32 24 -5 31 13 4 11 5 -5 6 -18 1 -23 -4 -23 -24
0 -22 4 -25 35 -25 34 0 35 1 35 40 l0 40 -55 0 -55 0 0 -55z"/>
<path d="M2750 215 l0 -55 75 0 75 0 0 50 0 50 60 0 60 0 0 -45 0 -45 -40 0
c-38 0 -40 2 -40 30 0 25 4 30 25 30 29 0 33 -15 8 -29 -16 -9 -16 -10 5 -11
17 0 22 6 22 25 0 23 -4 25 -40 25 l-40 0 0 -40 0 -40 55 0 55 0 0 55 0 55
-75 0 -75 0 0 -50 0 -50 -60 0 -60 0 0 45 0 45 40 0 c38 0 40 -2 40 -30 0 -23
-5 -30 -19 -30 -27 0 -35 17 -14 29 16 9 16 10 -4 11 -18 0 -23 -6 -23 -25 0
-22 4 -25 40 -25 l40 0 0 40 0 40 -55 0 -55 0 0 -55z"/>
<path d="M3060 215 l0 -55 75 0 75 0 0 50 0 50 60 0 60 0 0 -45 0 -45 -41 0
c-38 0 -40 1 -37 28 2 19 9 28 26 30 27 4 31 -24 5 -31 -11 -3 -7 -5 10 -6 22
-1 27 3 27 24 0 23 -4 25 -40 25 l-40 0 0 -40 0 -40 55 0 55 0 0 55 0 55 -75
0 -75 0 0 -50 0 -50 -60 0 -60 0 0 45 0 45 41 0 c38 0 40 -1 37 -27 -2 -20 -9
-29 -25 -31 -28 -4 -32 24 -5 31 10 3 6 5 -10 6 -23 1 -28 -3 -28 -24 0 -22 4
-25 40 -25 l40 0 0 40 0 40 -55 0 -55 0 0 -55z"/>
<path d="M3380 215 l0 -55 75 0 75 0 0 50 0 50 60 0 60 0 0 -45 0 -45 -40 0
c-38 0 -40 2 -40 30 0 23 5 30 19 30 27 0 35 -17 14 -29 -16 -9 -16 -10 5 -11
17 0 22 6 22 25 0 23 -4 25 -40 25 l-40 0 0 -40 0 -40 55 0 55 0 0 55 0 55
-75 0 -75 0 0 -50 0 -50 -60 0 -60 0 0 45 0 45 40 0 c38 0 40 -2 40 -30 0 -25
-4 -30 -25 -30 -29 0 -35 26 -7 33 13 4 11 5 -5 6 -18 1 -23 -4 -23 -24 0 -22
4 -25 40 -25 l40 0 0 40 0 40 -55 0 -55 0 0 -55z"/>
<path d="M3690 215 l0 -55 75 0 75 0 0 50 0 50 60 0 60 0 0 -45 0 -45 -41 0
c-38 0 -40 1 -37 28 2 19 9 28 26 30 27 4 31 -24 5 -31 -11 -3 -7 -5 10 -6 22
-1 27 3 27 24 0 23 -4 25 -40 25 l-40 0 0 -40 0 -40 55 0 55 0 0 55 0 55 -75
0 -75 0 0 -50 0 -50 -60 0 -60 0 0 45 0 45 41 0 c38 0 40 -1 37 -27 -2 -20 -9
-29 -25 -31 -28 -4 -32 24 -5 31 10 3 6 5 -10 6 -23 1 -28 -3 -28 -24 0 -22 4
-25 40 -25 l40 0 0 40 0 40 -55 0 -55 0 0 -55z"/>
</g>
</svg>
